<svg width="48" height="60" viewBox="0 0 48 60" fill="none" xmlns="http://www.w3.org/2000/svg">
<g clip-path="url(#clip0_32_123)">
<rect x="4" y="4" width="2" height="40" fill="#7F52FF"/>
<rect x="6" y="4" width="38" height="2" fill="#7F52FF"/>
<path d="M16 11H18H20M38 41L42 40.9997M6 23H8M14 13H18M12 15H16M10 17H14M8 19H12M6 21H10M36 39L40 38.9999M34 37H38M32 35H36M30 33H34M28 31H32M18 9H22M20 7H22H24M8 37H12M6 39H10M6 41H8M10 35H12H14M12 33H16M14 31H16H18M16 29H20M18 27H20H22M20 25H26M22 23H24H26M24 21H28M26 19H28H30M28 17H32M30 15H32H34M32 13H36M34 11H36H38M36 9H40M38 7H40H42M26 29H30M24 27H28" stroke="#7F52FF" stroke-width="2"/>
<rect x="6" y="42" width="38" height="2" fill="#7F52FF"/>
<path d="M4.84 59.168V51.44H6.114V50.166H7.514V51.58H6.254V53.974H7.374V52.7H8.662V51.44H9.922V50.166H11.35V51.58H10.062V52.84H8.802V54.1H7.514V55.22H8.802V56.494H10.062V57.768H11.35V59.168H9.922V57.908H8.662V56.634H7.374V55.36H6.254V59.168H4.84ZM13.6199 59.168V57.908H12.3459V53.974H13.6199V52.7H17.5679V53.974H18.8559V57.908H17.5679V59.168H13.6199ZM13.7599 57.768H17.4279V54.1H13.7599V57.768ZM23.083 59.168V57.908H21.823V54.1H20.549V52.7H21.823V50.166H23.223V52.7H27.059V54.1H23.223V57.768H26.919V56.494H28.333V57.908H27.059V59.168H23.083ZM29.7502 59.168V50.166H31.1642V59.168H29.7502ZM32.8537 59.168V52.7H34.2677V59.168H32.8537ZM32.8537 51.58V50.166H34.2677V51.58H32.8537ZM35.6838 59.168V52.7H40.9058V53.974H42.1938V59.168H40.7658V54.1H37.0978V59.168H35.6838Z" fill="#7F52FF"/>
</g>
<defs>
<clipPath id="clip0_32_123">
<rect width="48" height="60" fill="white"/>
</clipPath>
</defs>
</svg>
